<svg width="260" height="61" viewBox="0 0 260 61" fill="none" xmlns="http://www.w3.org/2000/svg">
<path d="M105.126 20.8447H108.016C108.296 20.8447 108.526 20.6147 108.526 20.3347V17.8947C108.526 17.6147 108.296 17.3847 108.016 17.3847H101.496V14.6747C101.496 13.3347 100.406 12.2347 99.0556 12.2347H96.1456C95.8656 12.2347 95.6356 12.4647 95.6356 12.7447V17.3847H89.1056C88.8256 17.3847 88.5956 17.6147 88.5956 17.8947V20.3347C88.5956 20.6147 88.8256 20.8447 89.1056 20.8447H91.9856C91.6256 21.2247 91.2756 21.6847 90.9356 22.2147C90.6356 22.7547 90.3756 23.3447 90.1756 23.9747C89.9656 24.6147 89.8556 25.3047 89.8556 26.0447C89.8556 27.1747 90.0156 28.1747 90.3456 29.0147C90.6656 29.8547 91.1256 30.5947 91.6756 31.1747C92.2356 31.8247 92.9056 32.3447 93.6556 32.7247C94.2756 33.0347 94.9356 33.3047 95.6356 33.5047V38.1447H88.8356C88.5556 38.1447 88.3256 38.3747 88.3256 38.6547V41.0947C88.3256 41.3747 88.5556 41.6047 88.8356 41.6047H104.756C106.666 41.6047 108.646 41.2247 110.656 40.4647V48.6747C110.656 48.9547 110.886 49.1847 111.166 49.1847H115.996C116.276 49.1847 116.506 48.9547 116.506 48.6747V27.4047H121.266C121.546 27.4047 121.776 27.1747 121.776 26.8947V24.4947C121.776 24.2147 121.546 23.9847 121.266 23.9847H116.506V16.4747C116.506 15.1347 115.416 14.0347 114.066 14.0347H111.156C110.876 14.0347 110.646 14.2647 110.646 14.5447V37.0947C109.686 37.3447 108.696 37.5647 107.696 37.7747C106.596 38.0047 105.556 38.1147 104.596 38.1147H101.486V33.5047C102.176 33.2847 102.846 32.9947 103.476 32.6147C104.226 32.1747 104.886 31.6147 105.436 30.9947C106.006 30.3947 106.456 29.6747 106.776 28.8447C107.096 28.0147 107.266 27.0547 107.266 26.0047C107.266 25.2447 107.156 24.5247 106.926 23.8547C106.926 23.8847 106.396 22.2047 105.126 20.8447ZM101.446 24.2847C101.576 24.8647 101.646 25.4347 101.646 25.9947C101.646 26.5547 101.576 27.1347 101.446 27.7047C101.316 28.2747 101.126 28.7747 100.896 29.1847C100.626 29.6447 100.286 30.0047 99.9056 30.2647C99.5456 30.5047 99.0856 30.6247 98.5456 30.6247C97.5556 30.6247 96.8156 30.1447 96.2656 29.1347C96.0056 28.7047 95.7956 28.2147 95.6556 27.6647C95.5156 27.1047 95.4356 26.5347 95.4356 25.9847C95.4356 25.4347 95.5056 24.8547 95.6556 24.2847C95.7956 23.7247 96.0056 23.2147 96.2756 22.7847C96.5256 22.3447 96.8456 22.0047 97.2456 21.7347C97.6156 21.4747 98.0456 21.3547 98.5456 21.3547C99.0956 21.3547 99.5456 21.4747 99.9056 21.7347C100.296 22.0047 100.636 22.3747 100.896 22.7847C101.126 23.2147 101.316 23.7147 101.446 24.2847Z" fill="white"/>
<path d="M152.416 41.8447V24.6147H157.526C157.806 24.6147 158.036 24.3847 158.036 24.1047V21.6647C158.036 21.3847 157.806 21.1547 157.526 21.1547H152.416V16.4747C152.416 15.1347 151.326 14.0347 149.976 14.0347H147.066C146.786 14.0347 146.556 14.2647 146.556 14.5447V34.7547C146.276 34.6547 145.996 34.5647 145.706 34.4847C143.346 33.8347 141.076 33.8247 138.706 34.5047C137.516 34.8447 136.416 35.3647 135.436 36.0447C134.466 36.7047 133.656 37.5347 133.016 38.5047C132.356 39.5047 132.026 40.6947 132.026 42.0447C132.026 43.3747 132.356 44.5547 133.016 45.5447C133.656 46.5147 134.466 47.3447 135.446 48.0147C136.476 48.6647 137.586 49.1647 138.746 49.4947C139.896 49.8247 141.066 49.9847 142.206 49.9847C143.346 49.9847 144.526 49.8247 145.706 49.4947C146.896 49.1647 147.996 48.6647 148.976 48.0147C149.976 47.3547 150.796 46.5247 151.416 45.5447C152.056 44.5447 152.406 43.3747 152.406 42.0447L152.416 41.8447ZM145.306 38.8347C145.706 39.2547 146.006 39.7547 146.216 40.3147C146.426 40.8847 146.536 41.4647 146.536 42.0647C146.536 42.6747 146.426 43.2647 146.216 43.8047C146.006 44.3347 145.706 44.8047 145.306 45.2047C144.906 45.6047 144.426 45.9447 143.896 46.2047C142.856 46.7147 141.566 46.7047 140.536 46.2047C140.006 45.9447 139.566 45.6147 139.196 45.2047C138.796 44.8047 138.476 44.3347 138.246 43.7947C138.016 43.2647 137.896 42.6847 137.896 42.0747C137.896 41.4847 138.006 40.9147 138.236 40.3647C138.466 39.8047 138.776 39.2947 139.196 38.8247C139.536 38.4147 139.976 38.0747 140.496 37.8147C141.016 37.5647 141.596 37.4347 142.216 37.4347C142.816 37.4347 143.376 37.5647 143.896 37.8147C144.426 38.0647 144.906 38.4147 145.306 38.8347Z" fill="white"/>
<path d="M133.606 28.6547C134.016 28.1847 134.366 27.6747 134.646 27.1247C134.926 27.6547 135.266 28.1547 135.676 28.6147C136.356 29.3847 137.106 30.0847 137.946 30.7347C138.776 31.2747 139.666 31.7347 140.586 32.0947C141.516 32.4647 142.396 32.6947 143.196 32.7747C143.216 32.7747 143.226 32.7747 143.246 32.7747C143.366 32.7747 143.486 32.7347 143.586 32.6447C143.796 32.4547 143.986 32.2947 144.146 32.1447C144.296 32.0047 144.446 31.8747 144.636 31.7147C144.756 31.5947 144.896 31.4747 145.036 31.3547C145.196 31.2247 145.386 31.0647 145.596 30.8747C145.736 30.7447 145.796 30.5547 145.756 30.3747C145.716 30.1947 145.566 30.0447 145.386 30.0047C143.256 29.4647 141.476 28.3447 140.116 26.6747C139.446 25.8547 138.886 24.9247 138.466 23.9347C138.116 23.1047 137.856 22.2047 137.716 21.2647H143.576C143.856 21.2647 144.086 21.0347 144.086 20.7547V18.3947C144.086 18.1147 143.856 17.8847 143.576 17.8847H137.636V14.6747C137.636 13.3347 136.546 12.2347 135.196 12.2347H132.246C131.966 12.2347 131.736 12.4647 131.736 12.7447V17.8847H125.796C125.516 17.8847 125.286 18.1147 125.286 18.3947V20.7547C125.286 21.0347 125.516 21.2647 125.796 21.2647H131.536C131.386 22.1947 131.126 23.0747 130.756 23.8847C130.306 24.8647 129.746 25.7647 129.096 26.5647C128.426 27.3847 127.636 28.1047 126.746 28.7047C125.866 29.2947 124.896 29.7347 123.856 30.0047C123.676 30.0547 123.536 30.1947 123.486 30.3747C123.446 30.5547 123.506 30.7447 123.646 30.8747L125.646 32.6447C125.756 32.7347 125.886 32.7847 126.036 32.7747C126.866 32.6947 127.756 32.4647 128.686 32.0947C129.606 31.7247 130.506 31.2747 131.396 30.7147C132.186 30.1147 132.926 29.4247 133.606 28.6547Z" fill="white"/>
<path d="M188.986 47.5647V25.8347H193.976C194.256 25.8347 194.486 25.6047 194.486 25.3247V22.9247C194.486 22.6447 194.256 22.4147 193.976 22.4147H188.986V16.4747C188.986 15.1347 187.896 14.0347 186.546 14.0347H183.636C183.356 14.0347 183.126 14.2647 183.126 14.5447V45.7547H172.546V38.3247C172.546 38.0447 172.316 37.8147 172.036 37.8147H167.206C166.926 37.8147 166.696 38.0447 166.696 38.3247V45.3547C166.696 46.4947 167.106 47.4347 167.916 48.1347C168.706 48.8147 169.646 49.1647 170.706 49.1647H188.466C188.746 49.1647 188.976 48.9347 188.976 48.6547L188.986 47.5647Z" fill="white"/>
<path d="M177.266 20.6847H180.336C180.616 20.6847 180.846 20.4547 180.846 20.1747V17.8547C180.846 17.5747 180.616 17.3447 180.336 17.3447H173.816V14.6647C173.816 13.3247 172.726 12.2247 171.376 12.2247H168.466C168.186 12.2247 167.956 12.4547 167.956 12.7347V17.3347H161.396C161.116 17.3347 160.886 17.5647 160.886 17.8447V20.1647C160.886 20.4447 161.116 20.6747 161.396 20.6747H164.546C164.416 20.8047 164.296 20.9447 164.186 21.0847C163.766 21.6047 163.416 22.1747 163.146 22.7647C162.836 23.3447 162.606 23.9647 162.436 24.6047C162.266 25.2447 162.186 25.8547 162.186 26.4247C162.186 27.7647 162.446 28.9447 162.966 29.9547C163.486 30.9647 164.176 31.8047 164.996 32.4347C165.806 33.1047 166.746 33.6147 167.796 33.9447C168.836 34.2747 169.866 34.4347 170.856 34.4347C171.856 34.4347 172.876 34.2647 173.906 33.9147C174.946 33.5647 175.876 33.0547 176.666 32.4047C177.506 31.7547 178.196 30.9247 178.716 29.9347C179.236 28.9347 179.496 27.7547 179.496 26.4147C179.496 25.8547 179.406 25.2647 179.286 24.6347C178.876 22.4447 177.266 20.6847 177.266 20.6847ZM174.016 26.4247C174.016 27.0147 173.946 27.6247 173.796 28.2347C173.656 28.8347 173.446 29.3747 173.186 29.8147C172.936 30.2247 172.606 30.5847 172.206 30.8647C171.436 31.4147 170.306 31.3847 169.576 30.8647C169.176 30.5847 168.866 30.2347 168.626 29.8047C168.346 29.3547 168.126 28.8247 167.986 28.2247C167.836 27.6147 167.766 27.0047 167.766 26.4147C167.766 25.8847 167.836 25.3247 167.986 24.7547C168.126 24.1947 168.346 23.6647 168.656 23.1447C168.886 22.6947 169.186 22.3247 169.586 22.0347C169.956 21.7547 170.396 21.6247 170.916 21.6247C171.416 21.6247 171.846 21.7547 172.216 22.0047C172.606 22.2747 172.926 22.6447 173.186 23.1447C173.446 23.5647 173.646 24.0847 173.796 24.6747C173.936 25.2747 174.016 25.8647 174.016 26.4247Z" fill="white"/>
<path d="M222.836 14.0447H219.926C219.646 14.0447 219.416 14.2747 219.416 14.5547V18.6847H215.566V16.8147C215.566 15.8947 214.816 15.1447 213.896 15.1447H210.216C209.936 15.1447 209.706 15.3747 209.706 15.6547V20.2547H203.806V16.8547C203.806 15.9347 203.056 15.1847 202.146 15.1847H198.506C198.226 15.1847 197.996 15.4147 197.996 15.6947V28.3847C197.996 29.6347 198.376 30.5947 199.116 31.2447C199.836 31.8747 200.786 32.1947 201.926 32.1947H215.056C215.336 32.1947 215.566 31.9647 215.566 31.6847V29.4447H219.416V34.6747C219.146 34.5747 218.866 34.4847 218.586 34.4147C216.256 33.7747 213.936 33.7547 211.556 34.4147C210.366 34.7447 209.276 35.2547 208.326 35.9347C207.326 36.5947 206.506 37.4347 205.866 38.4247C205.216 39.4347 204.876 40.6347 204.876 41.9847C204.876 43.3347 205.206 44.5347 205.866 45.5447C206.506 46.5247 207.336 47.3647 208.326 48.0247C209.286 48.6847 210.376 49.1847 211.566 49.5047C212.746 49.8347 213.916 49.9947 215.066 49.9947C216.236 49.9947 217.426 49.8347 218.596 49.5047C219.786 49.1747 220.886 48.6747 221.876 48.0247C222.846 47.3647 223.656 46.5247 224.296 45.5447C224.916 44.5847 225.256 43.4447 225.276 42.1647C225.276 42.1447 225.276 42.1347 225.276 42.1147V16.4847C225.266 15.1347 224.176 14.0447 222.836 14.0447ZM203.816 28.7047V23.6647H209.716V28.7347L203.816 28.7047ZM219.416 22.0947V26.0247H215.566V22.0947H219.416ZM218.116 38.8447C218.506 39.2347 218.826 39.7247 219.046 40.2847C219.266 40.8547 219.386 41.4347 219.386 42.0247C219.386 43.2847 218.976 44.3147 218.096 45.1847C217.726 45.6047 217.266 45.9447 216.726 46.2047C215.686 46.7047 214.436 46.7247 213.396 46.2047C212.876 45.9447 212.386 45.5947 211.956 45.1647C211.556 44.7647 211.256 44.3047 211.046 43.7647C210.836 43.2247 210.726 42.6347 210.726 42.0247C210.726 41.4347 210.836 40.8547 211.066 40.2847C211.296 39.7147 211.586 39.2247 211.906 38.8547C212.346 38.4447 212.846 38.0747 213.376 37.7647C213.876 37.4747 214.416 37.3447 215.006 37.3447C215.596 37.3447 216.166 37.4847 216.686 37.7747C217.246 38.0747 217.726 38.4347 218.116 38.8447Z" fill="white"/>
<path d="M235.116 26.6847C235.946 27.2347 236.906 27.6647 237.976 27.9747C239.036 28.2747 240.106 28.4247 241.136 28.4247C242.176 28.4247 243.236 28.2847 244.296 27.9947C245.366 27.7047 246.346 27.2847 247.246 26.7247C248.136 26.1147 248.876 25.3547 249.426 24.4747C249.996 23.5747 250.296 22.4847 250.296 21.2347C250.296 20.0147 250.006 18.9347 249.436 18.0047C248.876 17.0847 248.126 16.3447 247.226 15.7747C246.346 15.2247 245.366 14.7947 244.306 14.4947C242.176 13.8947 240.106 13.8947 237.976 14.4947C236.906 14.7947 235.936 15.2447 235.136 15.8147C234.236 16.3747 233.496 17.1247 232.926 18.0447C232.356 18.9747 232.066 20.0447 232.066 21.2347C232.066 22.4247 232.356 23.4947 232.926 24.4147C233.486 25.3047 234.216 26.0747 235.116 26.6847ZM237.676 21.2347C237.676 20.0747 237.966 19.1247 238.526 18.4047C239.076 17.7147 239.926 17.3747 241.136 17.3747C241.686 17.3747 242.176 17.4747 242.586 17.6747C243.006 17.8847 243.386 18.1647 243.686 18.4747C244.326 19.3047 244.646 20.2047 244.646 21.2247C244.646 22.3447 244.346 23.2547 243.776 23.9647C243.456 24.2847 243.066 24.5547 242.626 24.7647C241.796 25.1547 240.596 25.1747 239.746 24.7647C239.316 24.5547 238.936 24.2747 238.636 23.9547C237.986 23.2247 237.676 22.3247 237.676 21.2347Z" fill="white"/>
<path d="M257.066 14.0447H254.116C253.836 14.0447 253.606 14.2747 253.606 14.5547C253.606 17.8547 253.596 21.6747 253.586 25.0647C253.576 28.2847 253.566 31.4647 253.566 34.5947H246.976C246.696 34.5947 246.466 34.8247 246.466 35.1047V37.1447C246.466 37.4247 246.696 37.6547 246.976 37.6547H253.566L253.596 45.7547H242.026V40.0547C242.026 39.7747 241.796 39.5447 241.516 39.5447H236.726C236.446 39.5447 236.216 39.7747 236.216 40.0547V45.3547C236.216 46.4947 236.606 47.4247 237.386 48.1347C238.146 48.8247 239.106 49.1647 240.226 49.1647H258.986C259.266 49.1647 259.496 48.9347 259.496 48.6547V16.4847C259.506 15.1347 258.416 14.0447 257.066 14.0447Z" fill="white"/>
<path d="M237.606 37.0747C237.606 37.3547 237.836 37.5847 238.116 37.5847H242.946C243.226 37.5847 243.456 37.3547 243.456 37.0747V33.0247H252.536C252.816 33.0247 253.046 32.7947 253.046 32.5147V30.2347C253.046 29.9547 252.816 29.7247 252.536 29.7247H230.526C230.246 29.7247 230.016 29.9547 230.016 30.2347V32.5147C230.016 32.7947 230.246 33.0247 230.526 33.0247H237.596V37.0747H237.606Z" fill="white"/>
<path d="M58.7156 26.9547C58.8756 24.8947 60.8356 22.9447 61.9756 22.0047C65.8756 18.7947 74.0556 12.3047 74.7056 11.7547C75.4856 11.0847 76.7156 10.0847 75.3756 7.57469C74.1356 5.24469 71.3556 7.24469 70.9656 7.53469C70.9356 7.55469 70.9056 7.58469 70.8656 7.60469C69.8956 8.20469 56.9456 17.4147 54.9756 17.8447C54.9756 17.8447 52.2156 19.1747 52.4756 15.9347C52.8056 11.7147 54.5056 3.16469 54.5056 3.16469C55.1856 -0.135308 52.3956 -1.05531 47.9056 1.36469C45.4356 2.69469 44.9956 6.24469 44.9956 6.24469C44.4156 13.0247 44.6456 19.8947 44.6456 19.8947C44.7256 20.8547 44.5456 21.5347 44.2756 22.0247C43.9256 22.6647 43.2856 23.0847 42.5756 23.2247L33.2456 24.6847C32.5756 24.8047 32.0456 25.2747 31.8656 25.6647C31.8656 25.6647 30.9856 27.2547 33.5356 27.9647C36.0356 28.6647 39.5256 29.0847 41.8956 29.5547C41.8956 29.5547 44.6756 29.9047 45.2756 34.9247C45.6356 37.9347 47.1156 49.2947 48.5756 54.5047C49.9956 59.5847 50.8956 59.5547 51.4656 59.9247C51.4656 59.9247 56.3356 61.8447 55.0456 56.3447C52.9556 47.4047 52.1856 37.4447 52.1856 37.4447C52.1856 37.4447 51.8956 35.4547 52.6056 35.2447C53.1156 35.0947 53.3356 35.4847 53.6256 35.8547C53.6256 35.8547 62.0656 47.1347 71.3156 54.7747C71.8156 55.1947 72.8856 55.5747 73.5356 55.6047C74.6956 55.6647 75.2656 55.1447 75.5656 54.8947C76.3956 54.1747 76.3156 52.4947 76.0456 51.9147C74.4456 48.4647 58.0856 32.1847 58.7156 26.9547Z" fill="white"/>
<path d="M20.5855 22.7847C20.5655 23.6147 19.7255 23.9147 18.9355 23.6447C10.9755 20.9747 3.80555 10.1147 0.985548 12.5347C-1.80445 14.9347 2.21555 18.6847 2.21555 18.6847L15.2155 29.7747C16.4255 30.5847 16.7055 32.1347 16.1055 33.4647C13.4055 39.4647 9.23555 46.4347 1.60555 54.4947C1.60555 54.4947 0.105548 56.1147 2.19555 57.4547C4.28555 58.7947 5.45555 57.3747 6.95555 56.1147C8.45555 54.8547 20.2055 42.1647 20.2055 42.1647C20.4355 41.8947 20.6755 41.9247 20.8155 42.0347C21.2255 42.3547 21.0655 43.7947 21.0355 44.2347C20.4855 50.8847 19.9955 53.8147 19.4955 55.9347C18.9955 58.0547 22.2055 57.5647 22.2055 57.5647C24.0155 57.4647 24.2855 55.7847 24.2855 55.7847C26.7855 45.6847 27.3255 35.1947 27.3255 35.1947C27.3755 34.1747 27.8355 33.7147 28.3255 33.4847C28.9755 33.1847 29.6655 33.3847 29.6655 33.3847L35.7455 34.9547C35.7455 34.9547 38.8655 35.7047 39.2755 34.2147C39.8655 32.0647 38.2155 31.3447 38.2155 31.3447C36.6855 30.4547 32.0055 29.0547 29.1055 27.6947C28.3055 27.3147 27.8555 26.7147 27.8255 25.8247C27.8255 25.8247 27.7855 17.9947 27.1455 10.6947C27.1455 10.6947 27.3455 6.86469 24.4055 6.57469C22.5955 6.39469 20.3655 6.35469 19.4855 7.38469C18.7655 8.23469 19.0655 9.94469 19.0655 9.94469C19.0655 9.94469 20.7355 17.3347 20.5855 22.7847Z" fill="white"/>
</svg>
