<svg width="74" height="74" viewBox="0 0 74 74" fill="none" xmlns="http://www.w3.org/2000/svg">
<circle cx="37" cy="37" r="37" fill="#004EA2"/>
<path d="M28.4658 42.8992C27.8574 42.8992 27.1457 42.8106 26.3077 42.5979C23.8281 41.9746 21.759 38.9439 21.1621 35.0624C20.5537 31.1042 21.5409 25.8285 26.1412 22.9041L26.2044 22.8687C29.7859 21.1761 31.8034 22.3369 32.6873 23.1759C33.9501 24.3781 34.4465 26.4281 33.8668 28.0528L33.8496 28.0941C33.0604 29.8694 32.1248 30.4395 31.4418 30.856C31.3127 30.9329 31.195 31.0067 31.0831 31.0835C30.621 31.4114 29.1517 33.166 30.3972 35.73L31.2668 37.5201C31.5222 38.0459 31.6226 38.2408 31.6714 38.3383C31.7317 38.4535 31.7317 38.4535 31.7977 38.616C32.0818 39.3013 32.1937 40.7044 31.3242 41.756C30.8592 42.3291 30.004 42.8992 28.4658 42.8992ZM26.7152 23.9262C22.6199 26.5522 21.7475 31.3021 22.2985 34.8763C22.8151 38.2408 24.5772 40.9437 26.5803 41.4488C28.4744 41.9273 29.8146 41.7708 30.4546 40.9939C30.9999 40.3322 30.8879 39.4195 30.7473 39.0827C30.7014 38.9705 30.7014 38.9705 30.6584 38.8878C30.6067 38.7873 30.5063 38.5865 30.2422 38.0488L29.3727 36.2588C27.9033 33.234 29.453 30.8117 30.4316 30.1117C30.5608 30.0201 30.7043 29.9315 30.8564 29.8369C31.4676 29.4648 32.1593 29.0423 32.7964 27.6215C33.1522 26.5965 32.96 25.0457 31.9067 24.0414C30.7502 22.9425 28.9078 22.9011 26.7152 23.9262Z" fill="white"/>
<path d="M44.5371 42.8991C42.9988 42.8991 42.1436 42.332 41.673 41.7619C40.8063 40.7103 40.9153 39.3072 41.1994 38.6189C41.2655 38.4594 41.2655 38.4594 41.3257 38.3412C41.3745 38.2437 41.475 38.0488 41.7304 37.52L42.5999 35.73C43.8454 33.166 42.3732 31.4143 41.9112 31.0834C41.8021 31.0066 41.6816 30.9328 41.5553 30.856C40.8723 30.4395 39.9367 29.8694 39.1475 28.0941L39.1303 28.0527C38.5535 26.4281 39.0528 24.378 40.3155 23.1758C41.1994 22.3339 43.2169 21.176 46.7985 22.8686L46.8616 22.904C51.4591 25.8314 52.4492 31.1041 51.8408 35.0624C51.2439 38.9468 49.1776 41.9745 46.6981 42.5978C45.8572 42.8105 45.1426 42.8991 44.5371 42.8991ZM42.2555 39.0827C42.1149 39.4194 42.003 40.3322 42.5483 40.9938C43.1882 41.7707 44.5285 41.9273 46.4226 41.4487C48.4257 40.9436 50.1878 38.2408 50.7044 34.8763C51.2525 31.302 50.3801 26.5521 46.2877 23.9261C44.0951 22.9011 42.2527 22.9424 41.0933 24.0443C40.0372 25.0486 39.8478 26.5994 40.2036 27.6244C40.8407 29.0452 41.5323 29.4676 42.1436 29.8398C42.2957 29.9314 42.4392 30.02 42.5684 30.1146C43.5498 30.8146 45.0996 33.2339 43.6302 36.2617L42.7606 38.0517C42.4995 38.5923 42.3962 38.7932 42.3445 38.8936C42.3015 38.9704 42.3015 38.9704 42.2555 39.0827Z" fill="white"/>
<path d="M37.8303 52.0001H35.3421C34.9174 52.0001 34.5701 51.6427 34.5701 51.2055V35.6768C32.5297 33.5647 30.3601 32.9651 29.5135 32.8056C29.2007 32.7465 28.994 32.4393 29.0514 32.1173C29.1088 31.7953 29.4073 31.5827 29.7201 31.6417C30.693 31.8249 33.2041 32.5161 35.5114 34.9738C35.6463 35.1185 35.7181 35.3046 35.7181 35.5025V50.8156H37.4543V35.8599C37.4543 35.6709 37.5232 35.4907 37.6437 35.3519C38.2119 34.6961 38.8404 34.1053 39.512 33.6002L39.5378 33.5825L40.5193 32.9208C41.6328 32.2532 42.6401 31.9164 43.2887 31.754C43.5958 31.6772 43.9086 31.8692 43.9832 32.1882C44.0578 32.5043 43.8713 32.8263 43.5613 32.9031C42.9902 33.0478 42.1006 33.3432 41.1105 33.934L40.1807 34.5602C39.6182 34.9856 39.0901 35.4759 38.6022 36.0224V51.2055C38.6022 51.6427 38.255 52.0001 37.8303 52.0001ZM38.5018 36.1346C38.5018 36.1376 38.4989 36.1376 38.4989 36.1406C38.4989 36.1376 38.5018 36.1376 38.5018 36.1346Z" fill="white"/>
<path d="M36.7455 34.6665C36.5618 34.6665 36.3752 34.5956 36.2318 34.4509C36.0366 34.253 35.8242 34.0521 35.6004 33.8542C34.5816 32.9474 32.9372 31.7067 30.8795 30.9564C30.581 30.8471 30.4261 30.5104 30.5323 30.2032C30.6384 29.896 30.9656 29.7335 31.2641 29.8457C33.4882 30.661 35.2589 31.9903 36.3494 32.9651C36.4872 33.0862 36.6192 33.2073 36.7455 33.3284C36.8717 33.2073 37.0037 33.0862 37.1415 32.9651C38.166 32.0523 39.8248 30.794 41.9083 29.9669C42.2039 29.8487 42.5368 30.0023 42.6487 30.3066C42.7635 30.6108 42.6143 30.9535 42.3187 31.0687C40.3873 31.8337 38.8462 33.0064 37.8905 33.8572C37.6638 34.058 37.4514 34.2589 37.2592 34.4539C37.1157 34.5927 36.9291 34.6665 36.7455 34.6665Z" fill="white"/>
<path d="M38.0283 39.4667H36.5934C36.2777 39.4667 36.0194 39.2008 36.0194 38.8759C36.0194 38.5509 36.2777 38.2851 36.5934 38.2851H38.0283C38.344 38.2851 38.6022 38.5509 38.6022 38.8759C38.6022 39.2008 38.3468 39.4667 38.0283 39.4667Z" fill="white"/>
<path d="M38.0283 43.3097H36.5934C36.2777 43.3097 36.0194 43.0439 36.0194 42.7189C36.0194 42.394 36.2777 42.1281 36.5934 42.1281H38.0283C38.344 42.1281 38.6022 42.394 38.6022 42.7189C38.6022 43.0439 38.3468 43.3097 38.0283 43.3097Z" fill="white"/>
<path d="M38.0283 47.1528H36.5934C36.2777 47.1528 36.0194 46.8869 36.0194 46.562C36.0194 46.237 36.2777 45.9712 36.5934 45.9712H38.0283C38.344 45.9712 38.6022 46.237 38.6022 46.562C38.6022 46.8869 38.3468 47.1528 38.0283 47.1528Z" fill="white"/>
</svg>
