<svg width="74" height="74" viewBox="0 0 74 74" fill="none" xmlns="http://www.w3.org/2000/svg">
<circle cx="37" cy="37" r="37" fill="#004EA2"/>
<path d="M51.3793 50.76H50.1393V32.624L51.0073 33.276C51.2811 33.4816 51.6696 33.4258 51.8753 33.152C52.0809 32.8782 52.0251 32.4896 51.7513 32.284L36.8713 21.124C36.6501 20.9587 36.3474 20.9587 36.1273 21.124L21.2473 32.284C20.9734 32.4896 20.9176 32.8782 21.1233 33.152C21.3289 33.4258 21.7174 33.4816 21.9913 33.276L22.8593 32.625V50.76H21.6193C21.2772 50.76 20.9993 51.038 20.9993 51.38C20.9993 51.722 21.2772 52 21.6193 52H51.3793C51.7213 52 51.9993 51.722 51.9993 51.38C51.9993 51.038 51.7213 50.76 51.3793 50.76ZM32.7793 50.76H27.1993L27.1941 44.56C27.1962 42.916 28.2781 41.4683 29.8539 40.9991C31.4297 40.531 33.1265 41.1521 34.0265 42.5285C33.3486 43.2394 33.0128 44.2076 33.1037 45.1862C33.1947 46.1637 33.7041 47.0534 34.5008 47.6269C33.4303 48.3089 32.7813 49.49 32.7793 50.76ZM27.8141 36.5C27.8141 35.2466 28.5695 34.1161 29.7278 33.6366C30.8862 33.1572 32.2192 33.4217 33.1068 34.3083C33.9934 35.1949 34.258 36.5289 33.7785 37.6873C33.298 38.8446 32.1675 39.6 30.9141 39.6C29.2029 39.5979 27.8162 38.2112 27.8141 36.5ZM34.3293 44.87C34.3293 43.9927 34.8583 43.2012 35.6685 42.8653C36.4796 42.5295 37.4127 42.7155 38.0327 43.3355C38.6538 43.9555 38.8387 44.8896 38.5029 45.6998C38.1681 46.5109 37.3766 47.04 36.4993 47.04C35.3006 47.04 34.3293 46.0687 34.3293 44.87ZM34.0193 50.76C34.0193 49.3908 35.1301 48.28 36.4993 48.28C37.8684 48.28 38.9793 49.3908 38.9793 50.76H34.0193ZM45.7993 50.76H40.2193C40.2172 49.49 39.5683 48.3089 38.4977 47.6269C39.7687 46.7124 40.2492 45.0477 39.6602 43.5969C40.7628 42.6525 42.3138 42.4365 43.6334 43.0431C44.953 43.6496 45.7982 44.9682 45.7993 46.419V50.76V50.76ZM38.9793 38.36C38.9793 37.1066 39.7346 35.9761 40.893 35.4966C42.0514 35.0172 43.3844 35.2817 44.271 36.1683C45.1576 37.0549 45.4221 38.3879 44.9426 39.5463C44.4632 40.7046 43.3327 41.46 42.0793 41.46C40.3681 41.4579 38.9813 40.0712 38.9793 38.36ZM48.8993 50.76H47.0393V46.42C47.0382 44.5776 46.0152 42.887 44.3836 42.0314C46.0225 41.0033 46.783 39.0141 46.2488 37.1551C45.7135 35.2951 44.0126 34.0148 42.0782 34.0148C40.1428 34.0148 38.4419 35.2951 37.9077 37.1551C37.3724 39.0141 38.133 41.0033 39.7718 42.0314C39.4949 42.1782 39.2314 42.3507 38.9875 42.5481C37.9769 41.4569 36.3722 41.1531 35.033 41.8C34.5731 41.1138 33.948 40.5548 33.2143 40.1735C34.8552 39.1464 35.6178 37.1572 35.0836 35.2972C34.5494 33.4372 32.8475 32.1548 30.912 32.1548C28.9766 32.1548 27.2747 33.4372 26.7405 35.2972C26.2062 37.1572 26.9688 39.1464 28.6098 40.1735C26.9792 41.0301 25.9562 42.7186 25.9551 44.561L25.9593 50.76H24.0993V31.695L36.4993 22.395L48.8993 31.695V50.76Z" fill="white"/>
</svg>
