<svg width="74" height="74" viewBox="0 0 74 74" fill="none" xmlns="http://www.w3.org/2000/svg">
<circle cx="37" cy="37" r="37" fill="#004EA2"/>
<path d="M27.3169 54.9996C27.2073 54.9996 27.0976 54.9728 26.998 54.9158C26.6758 54.7382 26.5595 54.3294 26.7356 54.0044L32.2497 43.8786C32.3328 43.7244 32.4756 43.6072 32.645 43.5569C32.8144 43.5066 32.9971 43.5267 33.1499 43.6139C33.884 44.0193 34.7278 44.1131 35.5316 43.8786C36.3355 43.644 36.9965 43.1045 37.4018 42.3674C37.8037 41.6269 37.8967 40.7758 37.6642 39.9649C37.4317 39.1541 36.8969 38.4839 36.1661 38.0785C34.6514 37.2408 32.748 37.8004 31.9142 39.3249C31.7382 39.65 31.3329 39.7672 31.0107 39.5897C30.7915 39.469 30.6652 39.2378 30.6652 39.0033C30.6652 38.8927 30.6918 38.7821 30.7483 38.6816C31.5787 37.157 31.024 35.2337 29.5126 34.3927C28.0012 33.555 26.0945 34.1146 25.264 35.6392C24.8621 36.3797 24.7691 37.2341 25.0016 38.0416C25.2341 38.8525 25.7689 39.5193 26.4997 39.9247C26.6558 40.0118 26.7688 40.1559 26.8186 40.3235C26.8684 40.4943 26.8485 40.6786 26.7621 40.8328L21.248 50.9687C21.0719 51.2937 20.6667 51.411 20.3445 51.2334C20.0223 51.0558 19.906 50.647 20.0821 50.322L25.3006 40.7423C24.5432 40.1626 23.9951 39.3585 23.7227 38.4236C23.3905 37.271 23.5234 36.0546 24.0981 34.9992C25.2806 32.8246 27.9978 32.0304 30.1537 33.2233C31.5588 34.0007 32.3826 35.4348 32.459 36.9392C33.7611 36.1987 35.4021 36.1317 36.8039 36.9091C37.8469 37.4854 38.6076 38.4404 38.9398 39.593C39.2719 40.7456 39.1391 41.962 38.5677 43.0141C37.9964 44.0662 37.0497 44.8335 35.907 45.1686C34.9802 45.44 34.0103 45.4031 33.12 45.0714L27.9048 54.6545C27.7819 54.8756 27.5527 54.9996 27.3169 54.9996Z" fill="white"/>
<path d="M41.0757 38.6012C39.551 38.6012 38.0661 37.8138 37.2324 36.4031C36.4152 35.0126 36.4252 33.3573 37.1161 32.0204C35.6213 31.9936 34.173 31.2095 33.3559 29.8223C32.748 28.7903 32.5752 27.5807 32.8709 26.4146C33.1665 25.2519 33.8907 24.2702 34.9171 23.657C36.8371 22.5077 39.2753 22.9835 40.6472 24.6756L49.9614 19.0933C50.277 18.9057 50.6856 19.0096 50.8716 19.3279C51.0576 19.6462 50.9546 20.0583 50.6391 20.246L40.7933 26.1432C40.6405 26.2337 40.4611 26.2605 40.2884 26.2169C40.119 26.1734 39.9695 26.0628 39.8798 25.9087C38.9996 24.4109 37.0729 23.9184 35.5914 24.8063C34.8706 25.2385 34.3624 25.9254 34.1564 26.7397C33.9505 27.5572 34.07 28.405 34.4985 29.1321C35.3788 30.6298 37.3054 31.1224 38.7903 30.2345C39.1058 30.0468 39.5144 30.1507 39.7004 30.469C39.7636 30.5762 39.7935 30.6935 39.7935 30.8108C39.7935 31.0386 39.6772 31.2631 39.4679 31.3871C37.9831 32.275 37.4948 34.2184 38.3751 35.7162C39.2587 37.214 41.182 37.7065 42.6668 36.8186C43.3843 36.3897 43.8958 35.6995 44.1018 34.8819C44.3077 34.0643 44.1882 33.2132 43.7597 32.4895C43.67 32.3353 43.6434 32.1544 43.6866 31.9802C43.7298 31.8059 43.8394 31.6585 43.9922 31.568L53.8379 25.6708C54.1535 25.4831 54.5621 25.587 54.7481 25.9053C54.9341 26.2236 54.8311 26.6358 54.5156 26.8234L45.198 32.4091C45.5567 33.2937 45.6265 34.2687 45.3873 35.2136C45.0917 36.3797 44.3675 37.3581 43.3444 37.9712C42.6336 38.4001 41.8496 38.6012 41.0757 38.6012Z" fill="white"/>
<path d="M38.3385 40.5848C38.1392 40.5848 37.9399 40.4943 37.8104 40.3201C37.5878 40.0252 37.6443 39.6064 37.9366 39.3819C38.6009 38.8693 39.1457 38.2326 39.551 37.4888C39.727 37.1637 40.1323 37.0465 40.4545 37.2274C40.7767 37.405 40.893 37.8138 40.7169 38.1388C40.222 39.0435 39.5576 39.8209 38.7438 40.4474C38.6209 40.5379 38.478 40.5848 38.3385 40.5848Z" fill="white"/>
<path d="M27.7155 34.0208C27.6757 34.0208 27.6358 34.0174 27.5959 34.0107C27.2339 33.9437 26.9947 33.5952 27.0611 33.23C27.6358 30.0535 30.1537 27.641 33.326 27.2255C33.6881 27.1786 34.0236 27.4366 34.0701 27.8052C34.1166 28.1738 33.8608 28.5088 33.4954 28.5557C30.8978 28.8942 28.835 30.8711 28.3666 33.4712C28.3101 33.7929 28.0311 34.0208 27.7155 34.0208Z" fill="white"/>
</svg>
