<svg width="74" height="74" viewBox="0 0 74 74" fill="none" xmlns="http://www.w3.org/2000/svg">
<circle cx="37" cy="37" r="37" fill="#004EA2"/>
<path d="M27.393 51L25.7342 50.8419C25.8259 49.8686 25.9342 49.1116 26.0509 48.5958C26.7762 45.4346 28.8351 45.1684 30.0022 45.2932C31.1192 45.4096 32.0611 45.992 33.0614 46.5993C35.0787 47.8388 37.3544 49.2364 42.1476 47.7057C45.4153 46.6575 46.9157 44.22 47.5993 42.3566C49.0497 38.3801 48.1578 33.6715 46.5323 31.076C44.5983 27.998 40.0303 24.4458 36.3708 26.617C35.829 26.9415 35.5789 27.0912 31.0275 23.2728L32.1028 22C33.5116 23.1813 35.2121 24.529 35.904 24.9782C40.4804 22.6406 45.657 26.5505 47.9494 30.1942C50.1417 33.6799 50.6419 38.9125 49.1747 42.9306C48.0161 46.1001 45.7654 48.2963 42.6727 49.2946C37.1544 51.0666 34.2952 49.3029 32.2028 48.0218C31.3359 47.4894 30.5857 47.0235 29.8438 46.9487C29.0769 46.8655 28.1349 47.0235 27.6848 48.9785C27.5681 49.4194 27.4764 50.1015 27.393 51Z" fill="white"/>
<path d="M24.6672 50.7005L23 50.6672C23.0917 46.7157 24.2087 44.037 26.2427 42.9139C27.8765 42.0072 29.0019 42.0571 29.9855 42.0987C30.7607 42.132 31.4943 42.1652 32.578 41.7327C33.1031 41.5247 33.9784 40.8508 34.2618 39.8276C34.5369 38.846 34.2118 37.7479 33.3115 36.5666C30.3606 32.7065 31.5943 29.6119 32.4279 28.2642L28.7851 25.2943L29.8438 24.0049L34.0951 27.4739C34.2785 27.6236 34.3868 27.8399 34.4035 28.0729C34.4202 28.3058 34.3285 28.5304 34.1701 28.6968C34.0701 28.8049 31.5693 31.5336 34.6453 35.56C36.1874 37.5815 36.1707 39.237 35.879 40.2768C35.4538 41.7909 34.2285 42.8724 33.1948 43.28C31.7777 43.8374 30.7941 43.7958 29.9188 43.7625C29.0019 43.7292 28.2766 43.6959 27.0513 44.3698C25.1757 45.4013 24.7172 48.3795 24.6672 50.7005Z" fill="white"/>
</svg>
