<svg width="74" height="74" viewBox="0 0 74 74" fill="none" xmlns="http://www.w3.org/2000/svg">
<circle cx="37" cy="37" r="37" fill="#004EA2"/>
<path d="M30.1468 37.0026C30.114 37.0026 30.0811 37.0026 30.0416 36.9962C27.4843 36.5985 25.4134 34.6679 24.8809 32.1984L24.1052 28.5873C23.7896 27.0992 24.1512 25.547 25.0847 24.4245C25.8671 23.4881 26.9321 22.9685 28.0891 22.9685H28.2075C28.569 22.9685 28.8649 23.2572 28.8649 23.6099C28.8649 23.9627 28.569 24.2514 28.2075 24.2514H28.0957C27.3462 24.2514 26.6428 24.5977 26.1103 25.2327C25.4266 26.0601 25.1636 27.2147 25.4003 28.3243L26.176 31.9355C26.5968 33.8918 28.2337 35.4183 30.252 35.7326C30.6136 35.7903 30.8568 36.1175 30.7977 36.4638C30.7451 36.7781 30.469 37.0026 30.1468 37.0026Z" fill="white"/>
<path d="M36.7867 37.0026C36.4711 37.0026 36.1885 36.7781 36.1359 36.4638C36.0767 36.111 36.3265 35.7839 36.6815 35.7326C38.6998 35.4183 40.3433 33.8918 40.7641 31.9355L41.5332 28.3243C41.7699 27.2147 41.5069 26.0601 40.8167 25.2391C40.2907 24.6041 39.5873 24.2578 38.8313 24.2578C38.4697 24.2578 38.1738 23.9691 38.1738 23.6164C38.1738 23.2636 38.4697 22.9749 38.8313 22.9749C39.9883 22.9749 41.0533 23.4945 41.8356 24.4309C42.7692 25.5534 43.1373 27.1056 42.8152 28.5873L42.046 32.1984C41.5135 34.6743 39.4427 36.6049 36.8853 37.0026C36.8524 37.0026 36.8196 37.0026 36.7867 37.0026Z" fill="white"/>
<path d="M29.2067 25.2263C28.2929 25.2263 27.5566 24.5015 27.5566 23.6164C27.5566 22.7312 28.2995 22 29.2067 22C30.1205 22 30.8568 22.7248 30.8568 23.6099C30.8568 24.4951 30.1205 25.2263 29.2067 25.2263ZM29.2067 23.2828C29.0226 23.2828 28.8714 23.4303 28.8714 23.6099C28.8714 23.7895 29.0226 23.9371 29.2067 23.9371C29.3908 23.9371 29.542 23.7895 29.542 23.6099C29.5486 23.4303 29.3974 23.2828 29.2067 23.2828Z" fill="white"/>
<path d="M37.8451 25.2263C36.9313 25.2263 36.195 24.5015 36.195 23.6164C36.195 22.7312 36.9313 22 37.8451 22C38.7589 22 39.4953 22.7248 39.4953 23.6099C39.4953 24.4951 38.7524 25.2263 37.8451 25.2263ZM37.8451 23.2828C37.6611 23.2828 37.5099 23.4303 37.5099 23.6099C37.5099 23.7895 37.6611 23.9371 37.8451 23.9371C38.0292 23.9371 38.1804 23.7895 38.1804 23.6099C38.1804 23.4303 38.0292 23.2828 37.8451 23.2828Z" fill="white"/>
<path d="M35.7677 38.0738H31.1658C30.2389 38.0738 29.4828 37.3361 29.4828 36.4317C29.4828 35.5274 30.2389 34.7897 31.1658 34.7897H35.7677C36.6947 34.7897 37.4507 35.5274 37.4507 36.4317C37.4507 37.3361 36.6947 38.0738 35.7677 38.0738ZM31.1658 36.079C30.962 36.079 30.7977 36.2393 30.7977 36.4382C30.7977 36.637 30.962 36.7973 31.1658 36.7973H35.7677C35.9715 36.7973 36.1359 36.637 36.1359 36.4382C36.1359 36.2393 35.9715 36.079 35.7677 36.079H31.1658Z" fill="white"/>
<path d="M45.3002 51.5434H40.5931C36.3068 51.5434 32.8159 48.1375 32.8159 43.9555V37.4324C32.8159 37.0796 33.1118 36.7909 33.4733 36.7909C33.8349 36.7909 34.1308 37.0796 34.1308 37.4324V43.9555C34.1308 47.4319 37.03 50.2606 40.5931 50.2606H45.3002C45.6618 50.2606 45.9576 50.5492 45.9576 50.902C45.9576 51.2548 45.6618 51.5434 45.3002 51.5434Z" fill="white"/>
<path d="M47.8247 54C46.0694 54 44.6428 52.6081 44.6428 50.8956C44.6428 49.183 46.0694 47.7911 47.8247 47.7911C49.58 47.7911 51.0066 49.183 51.0066 50.8956C51.0066 52.6081 49.5734 54 47.8247 54ZM47.8247 49.0804C46.7991 49.0804 45.9576 49.895 45.9576 50.902C45.9576 51.909 46.7926 52.7236 47.8247 52.7236C48.8503 52.7236 49.6917 51.909 49.6917 50.902C49.6917 49.895 48.8503 49.0804 47.8247 49.0804Z" fill="white"/>
</svg>
