<svg width="260" height="61" viewBox="0 0 260 61" fill="none" xmlns="http://www.w3.org/2000/svg">
<path d="M105.12 20.84H108.01C108.29 20.84 108.52 20.61 108.52 20.33V17.89C108.52 17.61 108.29 17.38 108.01 17.38H101.49V14.67C101.49 13.33 100.4 12.23 99.05 12.23H96.14C95.86 12.23 95.63 12.46 95.63 12.74V17.38H89.1C88.82 17.38 88.59 17.61 88.59 17.89V20.33C88.59 20.61 88.82 20.84 89.1 20.84H91.98C91.62 21.22 91.27 21.68 90.93 22.21C90.63 22.75 90.37 23.34 90.17 23.97C89.96 24.61 89.85 25.3 89.85 26.04C89.85 27.17 90.01 28.17 90.34 29.01C90.66 29.85 91.12 30.59 91.67 31.17C92.23 31.82 92.9 32.34 93.65 32.72C94.27 33.03 94.93 33.3 95.63 33.5V38.14H88.83C88.55 38.14 88.32 38.37 88.32 38.65V41.09C88.32 41.37 88.55 41.6 88.83 41.6H104.75C106.66 41.6 108.64 41.22 110.65 40.46V48.67C110.65 48.95 110.88 49.18 111.16 49.18H115.99C116.27 49.18 116.5 48.95 116.5 48.67V27.4H121.26C121.54 27.4 121.77 27.17 121.77 26.89V24.49C121.77 24.21 121.54 23.98 121.26 23.98H116.5V16.47C116.5 15.13 115.41 14.03 114.06 14.03H111.15C110.87 14.03 110.64 14.26 110.64 14.54V37.09C109.68 37.34 108.69 37.56 107.69 37.77C106.59 38 105.55 38.11 104.59 38.11H101.48V33.5C102.17 33.28 102.84 32.99 103.47 32.61C104.22 32.17 104.88 31.61 105.43 30.99C106 30.39 106.45 29.67 106.77 28.84C107.09 28.01 107.26 27.05 107.26 26C107.26 25.24 107.15 24.52 106.92 23.85C106.92 23.88 106.39 22.2 105.12 20.84ZM101.44 24.28C101.57 24.86 101.64 25.43 101.64 25.99C101.64 26.55 101.57 27.13 101.44 27.7C101.31 28.27 101.12 28.77 100.89 29.18C100.62 29.64 100.28 30 99.9 30.26C99.54 30.5 99.08 30.62 98.54 30.62C97.55 30.62 96.81 30.14 96.26 29.13C96 28.7 95.79 28.21 95.65 27.66C95.51 27.1 95.43 26.53 95.43 25.98C95.43 25.43 95.5 24.85 95.65 24.28C95.79 23.72 96 23.21 96.27 22.78C96.52 22.34 96.84 22 97.24 21.73C97.61 21.47 98.04 21.35 98.54 21.35C99.09 21.35 99.54 21.47 99.9 21.73C100.29 22 100.63 22.37 100.89 22.78C101.12 23.21 101.31 23.71 101.44 24.28Z" fill="#004EA2"/>
<path d="M152.41 41.84V24.61H157.52C157.8 24.61 158.03 24.38 158.03 24.1V21.66C158.03 21.38 157.8 21.15 157.52 21.15H152.41V16.47C152.41 15.13 151.32 14.03 149.97 14.03H147.06C146.78 14.03 146.55 14.26 146.55 14.54V34.75C146.27 34.65 145.99 34.56 145.7 34.48C143.34 33.83 141.07 33.82 138.7 34.5C137.51 34.84 136.41 35.36 135.43 36.04C134.46 36.7 133.65 37.53 133.01 38.5C132.35 39.5 132.02 40.69 132.02 42.04C132.02 43.37 132.35 44.55 133.01 45.54C133.65 46.51 134.46 47.34 135.44 48.01C136.47 48.66 137.58 49.16 138.74 49.49C139.89 49.82 141.06 49.98 142.2 49.98C143.34 49.98 144.52 49.82 145.7 49.49C146.89 49.16 147.99 48.66 148.97 48.01C149.97 47.35 150.79 46.52 151.41 45.54C152.05 44.54 152.4 43.37 152.4 42.04L152.41 41.84ZM145.3 38.83C145.7 39.25 146 39.75 146.21 40.31C146.42 40.88 146.53 41.46 146.53 42.06C146.53 42.67 146.42 43.26 146.21 43.8C146 44.33 145.7 44.8 145.3 45.2C144.9 45.6 144.42 45.94 143.89 46.2C142.85 46.71 141.56 46.7 140.53 46.2C140 45.94 139.56 45.61 139.19 45.2C138.79 44.8 138.47 44.33 138.24 43.79C138.01 43.26 137.89 42.68 137.89 42.07C137.89 41.48 138 40.91 138.23 40.36C138.46 39.8 138.77 39.29 139.19 38.82C139.53 38.41 139.97 38.07 140.49 37.81C141.01 37.56 141.59 37.43 142.21 37.43C142.81 37.43 143.37 37.56 143.89 37.81C144.42 38.06 144.9 38.41 145.3 38.83Z" fill="#004EA2"/>
<path d="M133.6 28.65C134.01 28.18 134.36 27.67 134.64 27.12C134.92 27.65 135.26 28.15 135.67 28.61C136.35 29.38 137.1 30.08 137.94 30.73C138.77 31.27 139.66 31.73 140.58 32.09C141.51 32.46 142.39 32.69 143.19 32.77C143.21 32.77 143.22 32.77 143.24 32.77C143.36 32.77 143.48 32.73 143.58 32.64C143.79 32.45 143.98 32.29 144.14 32.14C144.29 32 144.44 31.87 144.63 31.71C144.75 31.59 144.89 31.47 145.03 31.35C145.19 31.22 145.38 31.06 145.59 30.87C145.73 30.74 145.79 30.55 145.75 30.37C145.71 30.19 145.56 30.04 145.38 30C143.25 29.46 141.47 28.34 140.11 26.67C139.44 25.85 138.88 24.92 138.46 23.93C138.11 23.1 137.85 22.2 137.71 21.26H143.57C143.85 21.26 144.08 21.03 144.08 20.75V18.39C144.08 18.11 143.85 17.88 143.57 17.88H137.63V14.67C137.63 13.33 136.54 12.23 135.19 12.23H132.24C131.96 12.23 131.73 12.46 131.73 12.74V17.88H125.79C125.51 17.88 125.28 18.11 125.28 18.39V20.75C125.28 21.03 125.51 21.26 125.79 21.26H131.53C131.38 22.19 131.12 23.07 130.75 23.88C130.3 24.86 129.74 25.76 129.09 26.56C128.42 27.38 127.63 28.1 126.74 28.7C125.86 29.29 124.89 29.73 123.85 30C123.67 30.05 123.53 30.19 123.48 30.37C123.44 30.55 123.5 30.74 123.64 30.87L125.64 32.64C125.75 32.73 125.88 32.78 126.03 32.77C126.86 32.69 127.75 32.46 128.68 32.09C129.6 31.72 130.5 31.27 131.39 30.71C132.18 30.11 132.92 29.42 133.6 28.65Z" fill="#004EA2"/>
<path d="M188.98 47.56V25.83H193.97C194.25 25.83 194.48 25.6 194.48 25.32V22.92C194.48 22.64 194.25 22.41 193.97 22.41H188.98V16.47C188.98 15.13 187.89 14.03 186.54 14.03H183.63C183.35 14.03 183.12 14.26 183.12 14.54V45.75H172.54V38.32C172.54 38.04 172.31 37.81 172.03 37.81H167.2C166.92 37.81 166.69 38.04 166.69 38.32V45.35C166.69 46.49 167.1 47.43 167.91 48.13C168.7 48.81 169.64 49.16 170.7 49.16H188.46C188.74 49.16 188.97 48.93 188.97 48.65L188.98 47.56Z" fill="#004EA2"/>
<path d="M177.26 20.68H180.33C180.61 20.68 180.84 20.45 180.84 20.17V17.85C180.84 17.57 180.61 17.34 180.33 17.34H173.81V14.66C173.81 13.32 172.72 12.22 171.37 12.22H168.46C168.18 12.22 167.95 12.45 167.95 12.73V17.33H161.39C161.11 17.33 160.88 17.56 160.88 17.84V20.16C160.88 20.44 161.11 20.67 161.39 20.67H164.54C164.41 20.8 164.29 20.94 164.18 21.08C163.76 21.6 163.41 22.17 163.14 22.76C162.83 23.34 162.6 23.96 162.43 24.6C162.26 25.24 162.18 25.85 162.18 26.42C162.18 27.76 162.44 28.94 162.96 29.95C163.48 30.96 164.17 31.8 164.99 32.43C165.8 33.1 166.74 33.61 167.79 33.94C168.83 34.27 169.86 34.43 170.85 34.43C171.85 34.43 172.87 34.26 173.9 33.91C174.94 33.56 175.87 33.05 176.66 32.4C177.5 31.75 178.19 30.92 178.71 29.93C179.23 28.93 179.49 27.75 179.49 26.41C179.49 25.85 179.4 25.26 179.28 24.63C178.87 22.44 177.26 20.68 177.26 20.68ZM174.01 26.42C174.01 27.01 173.94 27.62 173.79 28.23C173.65 28.83 173.44 29.37 173.18 29.81C172.93 30.22 172.6 30.58 172.2 30.86C171.43 31.41 170.3 31.38 169.57 30.86C169.17 30.58 168.86 30.23 168.62 29.8C168.34 29.35 168.12 28.82 167.98 28.22C167.83 27.61 167.76 27 167.76 26.41C167.76 25.88 167.83 25.32 167.98 24.75C168.12 24.19 168.34 23.66 168.65 23.14C168.88 22.69 169.18 22.32 169.58 22.03C169.95 21.75 170.39 21.62 170.91 21.62C171.41 21.62 171.84 21.75 172.21 22C172.6 22.27 172.92 22.64 173.18 23.14C173.44 23.56 173.64 24.08 173.79 24.67C173.93 25.27 174.01 25.86 174.01 26.42Z" fill="#004EA2"/>
<path d="M222.83 14.04H219.92C219.64 14.04 219.41 14.27 219.41 14.55V18.68H215.56V16.81C215.56 15.89 214.81 15.14 213.89 15.14H210.21C209.93 15.14 209.7 15.37 209.7 15.65V20.25H203.8V16.85C203.8 15.93 203.05 15.18 202.14 15.18H198.5C198.22 15.18 197.99 15.41 197.99 15.69V28.38C197.99 29.63 198.37 30.59 199.11 31.24C199.83 31.87 200.78 32.19 201.92 32.19H215.05C215.33 32.19 215.56 31.96 215.56 31.68V29.44H219.41V34.67C219.14 34.57 218.86 34.48 218.58 34.41C216.25 33.77 213.93 33.75 211.55 34.41C210.36 34.74 209.27 35.25 208.32 35.93C207.32 36.59 206.5 37.43 205.86 38.42C205.21 39.43 204.87 40.63 204.87 41.98C204.87 43.33 205.2 44.53 205.86 45.54C206.5 46.52 207.33 47.36 208.32 48.02C209.28 48.68 210.37 49.18 211.56 49.5C212.74 49.83 213.91 49.99 215.06 49.99C216.23 49.99 217.42 49.83 218.59 49.5C219.78 49.17 220.88 48.67 221.87 48.02C222.84 47.36 223.65 46.52 224.29 45.54C224.91 44.58 225.25 43.44 225.27 42.16C225.27 42.14 225.27 42.13 225.27 42.11V16.48C225.26 15.13 224.17 14.04 222.83 14.04ZM203.81 28.7V23.66H209.71V28.73L203.81 28.7ZM219.41 22.09V26.02H215.56V22.09H219.41ZM218.11 38.84C218.5 39.23 218.82 39.72 219.04 40.28C219.26 40.85 219.38 41.43 219.38 42.02C219.38 43.28 218.97 44.31 218.09 45.18C217.72 45.6 217.26 45.94 216.72 46.2C215.68 46.7 214.43 46.72 213.39 46.2C212.87 45.94 212.38 45.59 211.95 45.16C211.55 44.76 211.25 44.3 211.04 43.76C210.83 43.22 210.72 42.63 210.72 42.02C210.72 41.43 210.83 40.85 211.06 40.28C211.29 39.71 211.58 39.22 211.9 38.85C212.34 38.44 212.84 38.07 213.37 37.76C213.87 37.47 214.41 37.34 215 37.34C215.59 37.34 216.16 37.48 216.68 37.77C217.24 38.07 217.72 38.43 218.11 38.84Z" fill="#004EA2"/>
<path d="M235.11 26.68C235.94 27.23 236.9 27.66 237.97 27.97C239.03 28.27 240.1 28.42 241.13 28.42C242.17 28.42 243.23 28.28 244.29 27.99C245.36 27.7 246.34 27.28 247.24 26.72C248.13 26.11 248.87 25.35 249.42 24.47C249.99 23.57 250.29 22.48 250.29 21.23C250.29 20.01 250 18.93 249.43 18C248.87 17.08 248.12 16.34 247.22 15.77C246.34 15.22 245.36 14.79 244.3 14.49C242.17 13.89 240.1 13.89 237.97 14.49C236.9 14.79 235.93 15.24 235.13 15.81C234.23 16.37 233.49 17.12 232.92 18.04C232.35 18.97 232.06 20.04 232.06 21.23C232.06 22.42 232.35 23.49 232.92 24.41C233.48 25.3 234.21 26.07 235.11 26.68ZM237.67 21.23C237.67 20.07 237.96 19.12 238.52 18.4C239.07 17.71 239.92 17.37 241.13 17.37C241.68 17.37 242.17 17.47 242.58 17.67C243 17.88 243.38 18.16 243.68 18.47C244.32 19.3 244.64 20.2 244.64 21.22C244.64 22.34 244.34 23.25 243.77 23.96C243.45 24.28 243.06 24.55 242.62 24.76C241.79 25.15 240.59 25.17 239.74 24.76C239.31 24.55 238.93 24.27 238.63 23.95C237.98 23.22 237.67 22.32 237.67 21.23Z" fill="#004EA2"/>
<path d="M257.06 14.04H254.11C253.83 14.04 253.6 14.27 253.6 14.55C253.6 17.85 253.59 21.67 253.58 25.06C253.57 28.28 253.56 31.46 253.56 34.59H246.97C246.69 34.59 246.46 34.82 246.46 35.1V37.14C246.46 37.42 246.69 37.65 246.97 37.65H253.56L253.59 45.75H242.02V40.05C242.02 39.77 241.79 39.54 241.51 39.54H236.72C236.44 39.54 236.21 39.77 236.21 40.05V45.35C236.21 46.49 236.6 47.42 237.38 48.13C238.14 48.82 239.1 49.16 240.22 49.16H258.98C259.26 49.16 259.49 48.93 259.49 48.65V16.48C259.5 15.13 258.41 14.04 257.06 14.04Z" fill="#004EA2"/>
<path d="M237.6 37.07C237.6 37.35 237.83 37.58 238.11 37.58H242.94C243.22 37.58 243.45 37.35 243.45 37.07V33.02H252.53C252.81 33.02 253.04 32.79 253.04 32.51V30.23C253.04 29.95 252.81 29.72 252.53 29.72H230.52C230.24 29.72 230.01 29.95 230.01 30.23V32.51C230.01 32.79 230.24 33.02 230.52 33.02H237.59V37.07H237.6Z" fill="#004EA2"/>
<path d="M58.71 26.9501C58.87 24.8901 60.83 22.9401 61.97 22.0001C65.87 18.7901 74.05 12.3001 74.7 11.7501C75.48 11.0801 76.71 10.0801 75.37 7.57005C74.13 5.24005 71.35 7.24005 70.96 7.53005C70.93 7.55005 70.9 7.58005 70.86 7.60005C69.89 8.20005 56.94 17.4101 54.97 17.8401C54.97 17.8401 52.21 19.1701 52.47 15.9301C52.8 11.7101 54.5 3.16005 54.5 3.16005C55.18 -0.139946 52.39 -1.05995 47.9 1.36005C45.43 2.69005 44.99 6.24005 44.99 6.24005C44.41 13.0201 44.64 19.8901 44.64 19.8901C44.72 20.8501 44.54 21.5301 44.27 22.0201C43.92 22.6601 43.28 23.0801 42.57 23.2201L33.24 24.6801C32.57 24.8001 32.04 25.2701 31.86 25.6601C31.86 25.6601 30.98 27.2501 33.53 27.9601C36.03 28.6601 39.52 29.0801 41.89 29.5501C41.89 29.5501 44.67 29.9001 45.27 34.9201C45.63 37.9301 47.11 49.2901 48.57 54.5001C49.99 59.5801 50.89 59.5501 51.46 59.9201C51.46 59.9201 56.33 61.8401 55.04 56.3401C52.95 47.4001 52.18 37.4401 52.18 37.4401C52.18 37.4401 51.89 35.4501 52.6 35.2401C53.11 35.0901 53.33 35.4801 53.62 35.8501C53.62 35.8501 62.06 47.1301 71.31 54.7701C71.81 55.1901 72.88 55.5701 73.53 55.6001C74.69 55.6601 75.26 55.1401 75.56 54.8901C76.39 54.1701 76.31 52.4901 76.04 51.9101C74.44 48.4601 58.08 32.1801 58.71 26.9501Z" fill="#6FBA2C"/>
<path d="M20.58 22.7801C20.56 23.6101 19.72 23.9101 18.93 23.6401C10.97 20.9701 3.79999 10.1101 0.979994 12.5301C-1.81001 14.9301 2.20999 18.6801 2.20999 18.6801L15.21 29.7701C16.42 30.5801 16.7 32.1301 16.1 33.4601C13.4 39.4601 9.22999 46.4301 1.59999 54.4901C1.59999 54.4901 0.0999942 56.1101 2.18999 57.4501C4.27999 58.7901 5.44999 57.3701 6.94999 56.1101C8.44999 54.8501 20.2 42.1601 20.2 42.1601C20.43 41.8901 20.67 41.9201 20.81 42.0301C21.22 42.3501 21.06 43.7901 21.03 44.2301C20.48 50.8801 19.99 53.8101 19.49 55.9301C18.99 58.0501 22.2 57.5601 22.2 57.5601C24.01 57.4601 24.28 55.7801 24.28 55.7801C26.78 45.6801 27.32 35.1901 27.32 35.1901C27.37 34.1701 27.83 33.7101 28.32 33.4801C28.97 33.1801 29.66 33.3801 29.66 33.3801L35.74 34.9501C35.74 34.9501 38.86 35.7001 39.27 34.2101C39.86 32.0601 38.21 31.3401 38.21 31.3401C36.68 30.4501 32 29.0501 29.1 27.6901C28.3 27.3101 27.85 26.7101 27.82 25.8201C27.82 25.8201 27.78 17.9901 27.14 10.6901C27.14 10.6901 27.34 6.86006 24.4 6.57006C22.59 6.39006 20.36 6.35006 19.48 7.38006C18.76 8.23006 19.06 9.94006 19.06 9.94006C19.06 9.94006 20.73 17.3301 20.58 22.7801Z" fill="#004EA2"/>
</svg>
